<?xml version="1.0" encoding="UTF-8"?>
<!DOCTYPE svg PUBLIC "-//W3C//DTD SVG 1.1//EN" "http://www.w3.org/Graphics/SVG/1.1/DTD/svg11.dtd">
<svg xmlns="http://www.w3.org/2000/svg" version="1.1" width="196px" height="133px" style="shape-rendering:geometricPrecision; text-rendering:geometricPrecision; image-rendering:optimizeQuality; fill-rule:evenodd; clip-rule:evenodd" xmlns:xlink="http://www.w3.org/1999/xlink">
<g><path style="opacity:1" fill="#010101" d="M -0.5,-0.5 C 64.8333,-0.5 130.167,-0.5 195.5,-0.5C 195.5,43.8333 195.5,88.1667 195.5,132.5C 130.167,132.5 64.8333,132.5 -0.5,132.5C -0.5,88.1667 -0.5,43.8333 -0.5,-0.5 Z"/></g>
<g><path style="opacity:1" fill="#b6b6b6" d="M 36.5,18.5 C 41.3054,17.5128 46.3054,17.1795 51.5,17.5C 51.5,18.5 51.5,19.5 51.5,20.5C 46.807,18.6402 41.807,17.9735 36.5,18.5 Z"/></g>
<g><path style="opacity:1" fill="#f7f7f7" d="M 36.5,18.5 C 41.807,17.9735 46.807,18.6402 51.5,20.5C 53.1013,33.5148 54.768,46.5148 56.5,59.5C 56.2148,61.288 56.5481,62.9547 57.5,64.5C 58.1067,64.3764 58.44,64.0431 58.5,63.5C 62.8751,53.0828 68.0418,43.0828 74,33.5C 79.2579,43.7644 84.4246,54.0977 89.5,64.5C 92.4173,49.2381 94.7506,33.9048 96.5,18.5C 101.5,18.5 106.5,18.5 111.5,18.5C 110.671,21.4686 110.505,24.4686 111,27.5C 114.376,23.7294 118.542,21.3961 123.5,20.5C 129.13,19.7081 134.797,19.3748 140.5,19.5C 161.271,24.6904 171.104,38.0237 170,59.5C 165.664,78.9992 153.498,89.3326 133.5,90.5C 120.927,89.6289 111.094,83.9623 104,73.5C 102.202,78.6886 101.369,84.0219 101.5,89.5C 96.1563,89.666 90.8229,89.4994 85.5,89C 81.6273,81.4206 77.6273,73.9206 73.5,66.5C 69.3727,73.9206 65.3727,81.4206 61.5,89C 56.1771,89.4994 50.8437,89.666 45.5,89.5C 42.9624,65.7407 39.9624,42.074 36.5,18.5 Z"/></g>
<g><path style="opacity:1" fill="#b8b8b8" d="M 140.5,19.5 C 134.797,19.3748 129.13,19.7081 123.5,20.5C 126.526,18.9814 129.859,18.3148 133.5,18.5C 136.025,18.5034 138.359,18.8367 140.5,19.5 Z"/></g>
<g><path style="opacity:1" fill="#101010" d="M 113.5,57.5 C 112.833,57.5 112.167,57.5 111.5,57.5C 110.741,55.5642 109.741,53.7309 108.5,52C 109.424,50.1886 110.257,50.3553 111,52.5C 111.628,48.5328 113.795,45.6994 117.5,44C 117.167,43.6667 116.833,43.3333 116.5,43C 117.833,43 119.167,43 120.5,43C 119.931,40.0971 118.265,38.0971 115.5,37C 116.5,36 117.5,35 118.5,34C 120.055,34.4249 121.555,35.2582 123,36.5C 125.909,33.9985 128.743,31.4985 131.5,29C 135.738,28.1771 139.738,28.8438 143.5,31C 142.604,33.179 141.271,35.0124 139.5,36.5C 140.689,37.4287 142.022,37.762 143.5,37.5C 143.312,35.8967 143.812,34.5634 145,33.5C 145.617,34.4491 145.451,35.2825 144.5,36C 146.567,37.43 146.067,38.5966 143,39.5C 142.127,39.2645 141.293,38.9312 140.5,38.5C 138.079,41.2481 136.079,44.2481 134.5,47.5C 136.6,47.5228 138.433,46.8561 140,45.5C 140.945,45.9054 141.612,46.572 142,47.5C 142.626,43.8642 143.793,43.8642 145.5,47.5C 146.795,48.0983 148.128,48.5983 149.5,49C 148.975,49.6924 148.308,50.1924 147.5,50.5C 143.649,49.9364 139.649,49.4364 135.5,49C 132.806,51.6534 131.973,54.8201 133,58.5C 135.333,59.1667 137.667,59.8333 140,60.5C 141.073,64.0836 141.74,67.7502 142,71.5C 143.099,74.0387 144.766,74.7054 147,73.5C 149.325,69.8377 150.658,65.8377 151,61.5C 152.022,60.646 152.855,59.646 153.5,58.5C 153.154,57.3044 152.654,57.3044 152,58.5C 150.127,56.6102 149.294,54.6102 149.5,52.5C 150.5,53.8333 151.5,55.1667 152.5,56.5C 153.736,55.7542 155.07,55.4208 156.5,55.5C 156.5,54.5 156.5,53.5 156.5,52.5C 154.897,52.6882 153.563,52.1882 152.5,51C 155.657,50.6605 158.157,51.8272 160,54.5C 157.93,72.4759 147.763,80.9759 129.5,80C 125.888,78.8605 122.554,77.1939 119.5,75C 121.037,73.8904 121.703,72.3904 121.5,70.5C 122.5,70.5 123.5,70.5 124.5,70.5C 124.568,67.915 125.068,65.5817 126,63.5C 122.9,62.7022 120.4,61.0355 118.5,58.5C 116.955,57.5481 115.288,57.2148 113.5,57.5 Z"/></g>
<g><path style="opacity:1" fill="#757575" d="M 148.5,33.5 C 150.337,33.6395 150.67,34.3061 149.5,35.5C 148.702,35.0431 148.369,34.3764 148.5,33.5 Z"/></g>
<g><path style="opacity:1" fill="#9f9f9f" d="M 130.5,33.5 C 133.797,33.3287 134.131,33.9954 131.5,35.5C 130.702,35.0431 130.369,34.3764 130.5,33.5 Z"/></g>
<g><path style="opacity:1" fill="#dfdfdf" d="M 135.5,37.5 C 137.344,38.2039 137.844,39.5372 137,41.5C 136.25,40.8742 135.416,40.3742 134.5,40C 135.252,39.3292 135.586,38.4959 135.5,37.5 Z"/></g>
<g><path style="opacity:1" fill="#767676" d="M 56.5,59.5 C 57.1667,60.8333 57.8333,62.1667 58.5,63.5C 58.44,64.0431 58.1067,64.3764 57.5,64.5C 56.5481,62.9547 56.2148,61.288 56.5,59.5 Z"/></g>
<g><path style="opacity:1" fill="#535353" d="M 111.5,57.5 C 112.167,57.5 112.833,57.5 113.5,57.5C 110.62,62.0013 111.287,66.0013 115.5,69.5C 115.167,69.8333 114.833,70.1667 114.5,70.5C 110.985,66.4478 109.151,61.7812 109,56.5C 109.601,58.3588 110.434,58.6921 111.5,57.5 Z"/></g>
<g><path style="opacity:1" fill="#d5d5d5" d="M 152.5,66.5 C 153.465,67.7211 153.298,69.0544 152,70.5C 151.421,69.0715 151.588,67.7382 152.5,66.5 Z"/></g>
<g><path style="opacity:1" fill="#b3b3b3" d="M 134.5,101.5 C 134.167,101.5 133.833,101.5 133.5,101.5C 130.592,100.046 127.592,98.5459 124.5,97C 123.304,96.3457 123.304,95.8457 124.5,95.5C 131.389,98.8705 138.389,99.3705 145.5,97C 142.109,99.1857 138.442,100.686 134.5,101.5 Z"/></g>
<g><path style="opacity:1" fill="#e9e9e9" d="M 133.5,101.5 C 133.833,101.5 134.167,101.5 134.5,101.5C 130.76,107.056 125.76,111.223 119.5,114C 98.0971,122.375 79.2638,118.542 63,102.5C 62.6258,101.584 62.1258,100.75 61.5,100C 85.0276,116.062 109.028,116.562 133.5,101.5 Z"/></g>
</svg>
